<?xml version="1.0" encoding="utf-8"?>
<svg version="1.1" id="Layer_1" xmlns="http://www.w3.org/2000/svg" xmlns:xlink="http://www.w3.org/1999/xlink" x="0px" y="0px"
	 viewBox="0 0 32 32" style="enable-background:new 0 0 32 32;" xml:space="preserve">
<g fill="#FFFFFF">
	<g>
		<g>
			<path d="M11.9091797,23.1542969c-0.5522461,0-1-0.4472656-1-1V9.8457031c0-0.4667969,0.3237305-0.8720703,0.7792969-0.9755859
				l10.871582-2.4609375c0.2963867-0.0664063,0.6069336,0.0048828,0.8447266,0.1943359s0.3759766,0.4775391,0.3759766,0.78125
				v12.3076172c0,0.5527344-0.4477539,1-1,1s-1-0.4472656-1-1V8.6367188l-8.871582,2.0078125v11.5097656
				C12.9091797,22.7070313,12.4614258,23.1542969,11.9091797,23.1542969z"/>
		</g>
		<g>
			<path d="M9.4477539,25.6152344c-1.9086914,0-3.4619141-1.5527344-3.4619141-3.4609375
				c0-1.9091797,1.5532227-3.4619141,3.4619141-3.4619141s3.4614258,1.5527344,3.4614258,3.4619141
				C12.9091797,24.0625,11.3564453,25.6152344,9.4477539,25.6152344z M9.4477539,20.6923828
				c-0.8061523,0-1.4619141,0.65625-1.4619141,1.4619141s0.6557617,1.4609375,1.4619141,1.4609375
				c0.8056641,0,1.4614258-0.6552734,1.4614258-1.4609375S10.253418,20.6923828,9.4477539,20.6923828z"/>
		</g>
		<g>
			<path d="M20.3193359,23.1542969c-1.9086914,0-3.4614258-1.5527344-3.4614258-3.4619141s1.5527344-3.4619141,3.4614258-3.4619141
				s3.4614258,1.5527344,3.4614258,3.4619141S22.2280273,23.1542969,20.3193359,23.1542969z M20.3193359,18.2304688
				c-0.8056641,0-1.4614258,0.65625-1.4614258,1.4619141s0.6557617,1.4619141,1.4614258,1.4619141
				s1.4614258-0.65625,1.4614258-1.4619141S21.125,18.2304688,20.3193359,18.2304688z"/>
		</g>
	</g>
	<g>
		<path d="M30,31H2c-0.5522461,0-1-0.4472656-1-1V2c0-0.5527344,0.4477539-1,1-1h28c0.5522461,0,1,0.4472656,1,1v28
			C31,30.5527344,30.5522461,31,30,31z M3,29h26V3H3V29z"/>
	</g>
</g>
</svg>
